<svg height="368pt" viewBox="0 0 368 368" width="368pt" xmlns="http://www.w3.org/2000/svg"><path d="m56 272h24v88c0 4.414062 3.585938 8 8 8h64c4.414062 0 8-3.585938 8-8v-88h24c30.878906 0 56-25.121094 56-56v-96c0-66.167969-53.832031-120-120-120s-120 53.832031-120 120v96c0 30.878906 25.121094 56 56 56zm88 80h-48v-144h48zm80-136c0 22.054688-17.945312 40-40 40h-24v-48h64zm-208-96c0-57.34375 46.65625-104 104-104s104 46.65625 104 104v72h-208zm0 88h64v48h-24c-22.054688 0-40-17.945312-40-40zm0 0"/><path d="m120 48c-4.414062 0-8 3.585938-8 8s3.585938 8 8 8c30.878906 0 56 25.121094 56 56 0 4.414062 3.585938 8 8 8s8-3.585938 8-8c0-39.695312-32.304688-72-72-72zm0 0"/><path d="m312 256c-30.878906 0-56 25.121094-56 56s25.121094 56 56 56 56-25.121094 56-56-25.121094-56-56-56zm0 96c-22.054688 0-40-17.945312-40-40s17.945312-40 40-40 40 17.945312 40 40-17.945312 40-40 40zm0 0"/></svg>